<svg width="64" height="64" viewBox="0 0 64 64" fill="none" xmlns="http://www.w3.org/2000/svg">
<path d="M60 2.48999H42.79C42.5922 2.48999 42.3963 2.52911 42.2137 2.60512C42.031 2.68113 41.8652 2.79251 41.7258 2.93286C41.5864 3.07321 41.4761 3.23975 41.4013 3.42289C41.3265 3.60604 41.2887 3.80217 41.29 3.99999V4.99999C36.0365 3.3405 30.5594 2.49735 25.05 2.49999H8C7.28094 2.49339 6.56768 2.62916 5.90133 2.89946C5.23498 3.16977 4.62871 3.56927 4.11745 4.07495C3.6062 4.58063 3.20007 5.18248 2.92247 5.84583C2.64487 6.50918 2.50129 7.2209 2.5 7.93999V36.19C2.5013 36.9095 2.64481 37.6217 2.92229 38.2856C3.19977 38.9495 3.60574 39.5521 4.11686 40.0585C4.62798 40.565 5.23417 40.9655 5.90058 41.2369C6.56698 41.5083 7.28046 41.6453 8 41.64H19.64L16.64 52.13C16.3259 53.2231 16.2697 54.3743 16.476 55.4928C16.6822 56.6114 17.1452 57.6668 17.8286 58.576C18.512 59.4852 19.397 60.2235 20.4141 60.7326C21.4312 61.2417 22.5526 61.5078 23.69 61.51C25.2539 61.5119 26.7773 61.0129 28.0369 60.0862C29.2966 59.1594 30.2264 57.8536 30.69 56.36L32.89 49.36C33.5588 47.2202 34.6457 45.2345 36.0876 43.518C37.5295 41.8014 39.2978 40.3881 41.29 39.36V40.15C41.29 40.5478 41.448 40.9293 41.7293 41.2106C42.0106 41.492 42.3922 41.65 42.79 41.65H60C60.3978 41.65 60.7794 41.492 61.0607 41.2106C61.342 40.9293 61.5 40.5478 61.5 40.15V3.99999C61.5013 3.80217 61.4635 3.60604 61.3887 3.42289C61.3139 3.23975 61.2036 3.07321 61.0642 2.93286C60.9248 2.79251 60.759 2.68113 60.5763 2.60512C60.3937 2.52911 60.1978 2.48999 60 2.48999V2.48999ZM41.29 36C38.6217 37.1275 36.2302 38.8212 34.2808 40.9639C32.3315 43.1067 30.8709 45.6472 30 48.41L27.8 55.46C27.6187 56.0501 27.3123 56.5941 26.9015 57.0549C26.4908 57.5156 25.9854 57.8824 25.42 58.13C24.6693 58.455 23.8421 58.5613 23.0336 58.4365C22.2252 58.3117 21.4684 57.961 20.8507 57.4248C20.2329 56.8885 19.7793 56.1886 19.5421 55.4058C19.3049 54.6229 19.2938 53.7889 19.51 53L23.07 40.59C23.1333 40.3671 23.1442 40.1325 23.1016 39.9047C23.0591 39.6769 22.9644 39.462 22.8249 39.277C22.6853 39.0919 22.5049 38.9417 22.2975 38.8381C22.0902 38.7346 21.8617 38.6804 21.63 38.68H8C7.67068 38.6868 7.34339 38.627 7.03767 38.5044C6.73196 38.3818 6.45411 38.1988 6.22073 37.9664C5.98735 37.7339 5.80324 37.4568 5.67941 37.1516C5.55557 36.8464 5.49455 36.5193 5.5 36.19V7.93999C5.49993 7.614 5.56492 7.29128 5.69116 6.99072C5.8174 6.69017 6.00235 6.41783 6.23518 6.18966C6.468 5.96149 6.74402 5.78208 7.04706 5.66194C7.35011 5.54179 7.67408 5.48334 8 5.48999H25.1C30.6045 5.49192 36.0722 6.38688 41.29 8.13999V36ZM58.5 38.64H44.29V5.48999H58.5V38.64Z" fill="#9e9e9e" id="id_101"></path>
</svg>