<svg id="Layer_1" data-name="Layer 1" xmlns="http://www.w3.org/2000/svg" viewBox="0 0 512 512"><title>People</title><path d="M432.84,351.34A192.17,192.17,0,0,0,333.76,251a129.19,129.19,0,0,0,12.75-11.17,127.95,127.95,0,1,0-168,11.37A194.63,194.63,0,0,0,79.07,352.6,188.7,188.7,0,0,0,64,426.67V448a42.72,42.72,0,0,0,42.67,42.67H405.33A42.72,42.72,0,0,0,448,448V425.93A189.38,189.38,0,0,0,432.84,351.34ZM195.66,89a85.34,85.34,0,1,1-25,60.34A84.81,84.81,0,0,1,195.66,89ZM405.33,448H106.67V426.67a146.36,146.36,0,0,1,11.68-57.42,152.06,152.06,0,0,1,79.15-79.8A146.32,146.32,0,0,1,255,277.34a149.42,149.42,0,0,1,138.61,90.71,146.91,146.91,0,0,1,11.75,57.88Z" id="id_101" style="fill: rgb(158, 158, 158);"></path></svg>